<?xml version="1.0" encoding="UTF-8"?>
<svg id="Layer_2" xmlns="http://www.w3.org/2000/svg" version="1.1" viewBox="0 0 1446.44 119.34">
  <!-- Generator: Adobe Illustrator 29.3.1, SVG Export Plug-In . SVG Version: 2.1.0 Build 151)  -->
  <defs>
    <style>
      .st0 {
        fill: #666;
      }

      .st1 {
        fill: #f7931e;
      }
    </style>
  </defs>
  <path class="st0" d="M64.23,32.82h8.26l7.45,22.68,2.59,8.59h.32l2.51-8.59,7.53-22.68h8.26v53.13h-6.48v-26.57c0-5.18.81-14.25,1.13-18.79h-.24l-3,10.37-7.61,20.9h-4.86l-7.45-20.9-3.08-10.37h-.16c.49,4.54,1.13,13.61,1.13,18.79v26.57h-6.32v-53.13Z"/>
  <path class="st0" d="M113.48,75.75c0-8.83,8.26-13.12,28.59-14.74-.24-5.35-2.83-9.88-10.45-9.88-5.1,0-10.12,2.43-13.77,4.7l-2.67-4.54c4.05-2.59,10.69-5.67,17.58-5.67,10.77,0,16.04,6.4,16.04,16.2v24.14h-5.59l-.57-5.35h-.24c-4.29,3.4-9.96,6.32-15.47,6.32-7.37,0-13.45-4.13-13.45-11.18ZM142.07,75.67v-10.21c-16.85,1.3-21.95,4.62-21.95,9.8,0,4.45,4.05,6.24,8.58,6.24s8.83-2.11,13.36-5.83Z"/>
  <path class="st0" d="M172.28,70.64v-18.63h-11.18v-5.02l11.42-.4.89-12.64h5.59v12.64h19.28v5.43h-19.28v18.71c0,7.05,2.35,10.69,9.96,10.69,3.64,0,6.56-.73,9.4-1.78l1.46,4.94c-3.56,1.3-7.37,2.35-12.31,2.35-11.5,0-15.23-6.56-15.23-16.28Z"/>
  <path class="st0" d="M209.7,66.19c0-12.8,9.56-20.57,20.09-20.57,11.34,0,17.98,7.37,17.98,18.47,0,1.54-.16,3-.32,4.05h-33.29v-5.18h29.32l-1.7,1.86c0-9.31-4.62-13.93-11.83-13.93s-13.61,5.51-13.61,15.31,6.64,15.39,15.39,15.39c4.7,0,8.42-1.46,11.99-3.73l2.43,4.37c-3.89,2.59-8.91,4.7-15.23,4.7-11.82,0-21.22-7.61-21.22-20.73Z"/>
  <path class="st0" d="M264.54,46.59h5.59l.65,9.31h.16c4.13-6.4,10.29-10.29,17.58-10.29,2.92,0,5.35.41,7.78,1.62l-1.54,5.75c-2.75-.89-4.21-1.3-7.29-1.3-5.91,0-11.5,3-16.2,11.26v23h-6.72v-39.36Z"/>
  <path class="st0" d="M326.91,52.02h-18.22v-5.43h24.95v39.36h-6.72v-33.94ZM324.23,33.14c0-3.08,2.27-5.18,5.35-5.18s5.35,2.11,5.35,5.18-2.27,5.18-5.35,5.18-5.35-2.02-5.35-5.18Z"/>
  <path class="st0" d="M356.47,75.75c0-8.83,8.26-13.12,28.59-14.74-.24-5.35-2.83-9.88-10.45-9.88-5.1,0-10.12,2.43-13.77,4.7l-2.67-4.54c4.05-2.59,10.69-5.67,17.58-5.67,10.77,0,16.04,6.4,16.04,16.2v24.14h-5.59l-.57-5.35h-.24c-4.29,3.4-9.96,6.32-15.47,6.32-7.37,0-13.45-4.13-13.45-11.18ZM385.06,75.67v-10.21c-16.85,1.3-21.95,4.62-21.95,9.8,0,4.45,4.05,6.24,8.58,6.24s8.83-2.11,13.36-5.83Z"/>
  <path class="st0" d="M418.52,72.75v-39.04h-13.93v-5.43h20.65v44.95c0,5.67,3.08,8.1,7.78,8.1,2.27,0,4.7-.57,7.37-1.78l1.7,5.02c-3.64,1.54-6.24,2.35-10.53,2.35-8.42,0-13.04-4.86-13.04-14.17Z"/>
  <path class="st0" d="M452.94,80.77l3.08-4.45c4.54,3.24,9.88,5.35,17.09,5.35,6.64,0,9.88-2.75,9.88-6.07,0-3-1.54-5.1-12.23-7.29-10.29-2.11-15.39-5.59-15.39-11.5,0-6.32,5.59-11.18,16.36-11.18,5.99,0,11.99,2.35,15.88,5.02l-3.24,4.29c-3.64-2.51-8.18-4.13-13.2-4.13-6.64,0-9.07,2.67-9.07,5.67,0,3.4,3.4,4.86,11.5,6.56,13.04,2.83,16.2,6.07,16.2,12.15,0,6.4-6.24,11.74-17.49,11.74-7.69,0-14.58-2.83-19.36-6.16Z"/>
  <path class="st0" d="M552.08,80.2h13.2v-41.63h-13.2v-5.75h33.21v5.75h-13.2v41.63h13.2v5.75h-33.21v-5.75Z"/>
  <path class="st0" d="M600.52,46.59h5.51l.57,6.64h.32c4.13-4.29,8.67-7.61,14.82-7.61,9.31,0,13.61,5.51,13.61,15.88v24.46h-6.72v-23.57c0-7.45-2.59-10.93-8.99-10.93-4.7,0-7.86,2.35-12.39,7.05v27.46h-6.72v-39.36Z"/>
  <path class="st0" d="M649.93,46.99l11.42-.4h22.92v5.43h-34.34v-5.02ZM661.19,43.27c0-9.56,5.02-15.96,15.88-15.96,3.89,0,7.61.73,11.34,2.27l-1.54,5.02c-3.24-1.38-5.75-1.86-9.15-1.86-7.05,0-9.88,3.97-9.88,10.29v42.93h-6.64v-42.68Z"/>
  <path class="st0" d="M695.05,66.35c0-13.2,9.07-20.73,19.44-20.73s19.44,7.53,19.44,20.73-9.07,20.57-19.44,20.57-19.44-7.53-19.44-20.57ZM727.04,66.35c0-9.07-5.02-15.15-12.55-15.15s-12.55,6.07-12.55,15.15,5.02,14.98,12.55,14.98,12.55-5.99,12.55-14.98Z"/>
  <path class="st0" d="M750.53,46.59h5.59l.65,9.31h.16c4.13-6.4,10.29-10.29,17.58-10.29,2.92,0,5.35.41,7.78,1.62l-1.54,5.75c-2.75-.89-4.21-1.3-7.29-1.3-5.91,0-11.5,3-16.2,11.26v23h-6.72v-39.36Z"/>
  <path class="st0" d="M792.08,46.59h5.35l.57,5.18h.16c2.02-3.65,4.45-6.16,8.99-6.16,3.89,0,6.32,2.27,7.45,6.8,2.27-4.21,4.7-6.8,9.23-6.8,5.51,0,8.75,4.29,8.75,12.15v28.19h-6.64v-27.7c0-4.54-1.3-6.88-4.21-6.88-2.75,0-4.21,2.02-6.32,6.07v28.51h-6.16v-27.7c0-4.54-1.13-6.88-4.05-6.88-2.75,0-4.54,2.02-6.48,6.07v28.51h-6.64v-39.36Z"/>
  <path class="st0" d="M842.46,75.75c0-8.83,8.26-13.12,28.59-14.74-.24-5.35-2.83-9.88-10.45-9.88-5.1,0-10.12,2.43-13.77,4.7l-2.67-4.54c4.05-2.59,10.69-5.67,17.58-5.67,10.77,0,16.04,6.4,16.04,16.2v24.14h-5.59l-.57-5.35h-.24c-4.29,3.4-9.96,6.32-15.47,6.32-7.37,0-13.45-4.13-13.45-11.18ZM871.06,75.67v-10.21c-16.85,1.3-21.95,4.62-21.95,9.8,0,4.45,4.05,6.24,8.58,6.24s8.83-2.11,13.36-5.83Z"/>
  <path class="st0" d="M901.27,70.64v-18.63h-11.18v-5.02l11.42-.4.89-12.64h5.59v12.64h19.28v5.43h-19.28v18.71c0,7.05,2.35,10.69,9.96,10.69,3.64,0,6.56-.73,9.4-1.78l1.46,4.94c-3.56,1.3-7.37,2.35-12.31,2.35-11.5,0-15.23-6.56-15.23-16.28Z"/>
  <path class="st0" d="M958.7,52.02h-18.22v-5.43h24.95v39.36h-6.72v-33.94ZM956.02,33.14c0-3.08,2.27-5.18,5.35-5.18s5.35,2.11,5.35,5.18-2.27,5.18-5.35,5.18-5.35-2.02-5.35-5.18Z"/>
  <path class="st0" d="M988.26,66.35c0-13.2,10.04-20.73,21.95-20.73,6.4,0,11.1,2.59,14.34,5.75l-3.32,4.29c-3.24-2.75-6.64-4.45-10.77-4.45-9.07,0-15.31,6.07-15.31,15.15s6.16,14.98,15.15,14.98c4.86,0,8.91-2.19,12.15-4.94l3,4.37c-4.37,3.89-9.8,6.16-15.63,6.16-12.31,0-21.54-7.53-21.54-20.57Z"/>
  <path class="st0" d="M1036.13,80.77l3.08-4.45c4.54,3.24,9.88,5.35,17.09,5.35,6.64,0,9.88-2.75,9.88-6.07,0-3-1.54-5.1-12.23-7.29-10.29-2.11-15.39-5.59-15.39-11.5,0-6.32,5.59-11.18,16.36-11.18,5.99,0,11.99,2.35,15.88,5.02l-3.24,4.29c-3.64-2.51-8.18-4.13-13.2-4.13-6.64,0-9.07,2.67-9.07,5.67,0,3.4,3.4,4.86,11.5,6.56,13.04,2.83,16.2,6.07,16.2,12.15,0,6.4-6.24,11.74-17.49,11.74-7.69,0-14.58-2.83-19.36-6.16Z"/>
  <path class="st1" d="M1148.23,87.49c0-5.91.81-10.21.81-15.63,0-3.16-2.19-6.24-11.74-6.32v-4.21c9.56-.08,11.74-3.16,11.74-6.32,0-5.1-.81-10.04-.81-15.63,0-8.34,4.86-10.77,14.98-10.77h5.02v3.81h-4.21c-8.26,0-10.04,2.11-10.04,7.37,0,4.62.49,9.64.49,14.66s-1.78,7.86-7.37,8.83v.32c5.59.97,7.37,3.56,7.37,8.83s-.49,9.72-.49,14.66c0,5.26,1.78,7.37,10.04,7.37h4.21v3.81h-5.02c-10.12,0-14.98-2.43-14.98-10.77Z"/>
  <path class="st0" d="M1189.95,81.58h-.24l-.65,4.37h-5.35V28.28h6.72v15.71l-.32,7.61h.24c3.56-3.64,8.58-5.99,13.2-5.99,10.61,0,16.36,7.86,16.36,20.01,0,13.45-8.42,21.3-17.74,21.3-3.89,0-8.58-2.02-12.23-5.35ZM1213.03,65.7c0-8.67-3.24-14.42-11.1-14.42-3.48,0-7.53,1.78-11.5,5.83v19.6c3.64,3.32,7.78,4.54,10.61,4.54,6.8,0,11.99-5.83,11.99-15.55Z"/>
  <path class="st0" d="M1229.64,66.35c0-13.2,9.07-20.73,19.44-20.73s19.44,7.53,19.44,20.73-9.07,20.57-19.44,20.57-19.44-7.53-19.44-20.57ZM1261.63,66.35c0-9.07-5.02-15.15-12.55-15.15s-12.55,6.07-12.55,15.15,5.02,14.98,12.55,14.98,12.55-5.99,12.55-14.98Z"/>
  <path class="st0" d="M1278.24,66.35c0-13.2,9.07-20.73,19.44-20.73s19.44,7.53,19.44,20.73-9.07,20.57-19.44,20.57-19.44-7.53-19.44-20.57ZM1310.23,66.35c0-9.07-5.02-15.15-12.55-15.15s-12.55,6.07-12.55,15.15,5.02,14.98,12.55,14.98,12.55-5.99,12.55-14.98Z"/>
  <path class="st0" d="M1330.48,28.28h6.72v38.96h.32l21.14-20.65h7.69l-29.16,28.67v10.69h-6.72V28.28ZM1345.63,65.06l4.05-4.37,18.79,25.27h-7.45l-15.39-20.9Z"/>
  <path class="st1" d="M1378.6,94.46h4.13c8.26,0,10.12-2.11,10.12-7.37,0-4.94-.49-9.15-.49-14.66s1.7-7.86,7.29-8.83v-.32c-5.59-.97-7.29-3.56-7.29-8.83s.49-10.04.49-14.66c0-5.26-1.86-7.37-10.12-7.37h-4.13v-3.81h4.94c10.21,0,14.9,2.43,14.9,10.77,0,5.59-.73,10.53-.73,15.63,0,3.16,2.19,6.24,11.74,6.32v4.21c-9.56.08-11.74,3.16-11.74,6.32,0,5.43.73,9.72.73,15.63,0,8.34-4.7,10.77-14.9,10.77h-4.94v-3.81Z"/>
</svg>